<svg width="320" height="120" viewBox="0 0 320 120" fill="none" xmlns="http://www.w3.org/2000/svg">
  <rect width="320" height="120" rx="24" fill="#F2F8FF"/>
  <path d="M66 86C80.3594 86 92 74.3594 92 60C92 45.6406 80.3594 34 66 34C54.4005 34 44.576 41.6155 41.302 52.1544C30.3518 54.1724 22 63.7768 22 75.3C22 88.2864 32.5136 98.8 45.5 98.8H81.8C91.3134 98.8 99.025 91.0884 99.025 81.575C99.025 72.0616 91.3134 64.35 81.8 64.35C79.5357 64.35 77.3735 64.7875 75.3935 65.5848C73.4341 59.7864 67.9387 55.6 61.45 55.6C53.3229 55.6 46.7333 62.1896 46.7333 70.3167C46.7333 78.4437 53.3229 85.0333 61.45 85.0333H66V86Z" fill="#4A90D9"/>
  <text x="122" y="56" fill="#1C1C1E" font-family="Arial, sans-serif" font-size="26" font-weight="700">BeOnCloud</text>
  <text x="122" y="84" fill="#4A90D9" font-family="Arial, sans-serif" font-size="18" font-weight="700">OFFICIAL</text>
</svg>
